<svg id="Warstwa_1" data-name="Warstwa 1" xmlns="http://www.w3.org/2000/svg" xmlns:xlink="http://www.w3.org/1999/xlink" viewBox="0 0 308.29 206.66"><defs><style>.cls-1{fill:#fff;}.cls-2{clip-path:url(#clip-path);}.cls-3,.cls-4{fill:#393a3a;}.cls-4{font-size:68px;font-family:Config-ExtraLight, Config;font-weight:200;}</style><clipPath id="clip-path" transform="translate(46.6 57.66)"><rect class="cls-1" x="0.08" y="0.22" width="103.82" height="97.08" rx="11.54"/></clipPath></defs><title>bql_logo</title><rect class="cls-1" x="46.68" y="57.88" width="103.82" height="97.08" rx="11.54"/><g class="cls-2"><rect class="cls-3" x="5.5" y="-76.41" width="12.7" height="148.58" transform="translate(48.79 48.36) rotate(46.74)"/><rect class="cls-3" x="45.64" y="-25.99" width="12.7" height="148.58" transform="translate(98.13 34.99) rotate(46.74)"/><rect class="cls-3" x="91.96" y="19.17" width="12.7" height="148.58" transform="translate(145.59 15.48) rotate(46.74)"/><rect class="cls-3" x="59.08" y="-9.9" width="12.7" height="148.58" transform="translate(114.08 30.28) rotate(46.74)"/><rect class="cls-3" x="73.61" y="6.37" width="12.7" height="148.58" transform="translate(130.5 24.81) rotate(46.74)"/><rect class="cls-3" x="15.13" y="-56.1" width="12.7" height="148.58" transform="translate(66.61 47.74) rotate(46.74)"/><rect class="cls-3" x="29.66" y="-39.83" width="12.7" height="148.58" transform="translate(83.03 42.28) rotate(46.74)"/></g><text class="cls-4" transform="translate(150.51 154.01)">BQL</text></svg>